# xmcd
#
# Track frame offsets: 
#        150
#        43183
#        71761
#        90707
#        125255
#        155289
#        163282
#        194439
#        240621
#        265818
#        299190
#
# Disc length: 4650 seconds
#
# Revision: 1
# Processed by: cddbd v1.5.2PL0 Copyright (c) Steve Scherf et al.
# Submitted via: ExactAudioCopy v1.3
#
DISCID=a712280b
DTITLE=Gov't Mule - Dub Side Of The Mule
DYEAR=2015
DGENRE=Jam Rock
TTITLE0=Thorazine Shuffle
TTITLE1=Larger Than Life
TTITLE2=She Said, She Said
TTITLE3=Tomorrow Never Knows
TTITLE4=Whiter Shade Of Pale
TTITLE5=Dolphineus
TTITLE6=Painted Silver Light
TTITLE7=Sco-Mule
TTITLE8=So Weak, So Strong
TTITLE9=Play With Fire
TTITLE10=Unring The Bell
EXTD=
EXTT0=
EXTT1=
EXTT2=
EXTT3=
EXTT4=
EXTT5=
EXTT6=
EXTT7=
EXTT8=
EXTT9=
EXTT10=
PLAYORDER=
